<svg width="548" height="548" viewBox="0 0 548 548" fill="none" xmlns="http://www.w3.org/2000/svg">
<g style="mix-blend-mode:plus-darker">
<circle cx="539.164" cy="273.606" r="5.69024" transform="rotate(135 539.164 273.606)" fill="#EEEEEE"/>
<circle cx="442.597" cy="177.039" r="5.69024" transform="rotate(135 442.597 177.039)" fill="#EEEEEE"/>
<circle cx="346.03" cy="80.4724" r="5.69024" transform="rotate(135 346.03 80.4724)" fill="#EEEEEE"/>
<circle cx="490.88" cy="225.322" r="5.69024" transform="rotate(135 490.88 225.322)" fill="#EEEEEE"/>
<circle cx="394.314" cy="128.756" r="5.69024" transform="rotate(135 394.314 128.756)" fill="#EEEEEE"/>
<circle cx="297.747" cy="32.189" r="5.69024" transform="rotate(135 297.747 32.189)" fill="#EEEEEE"/>
<circle cx="515.022" cy="249.464" r="5.69024" transform="rotate(135 515.022 249.464)" fill="#EEEEEE"/>
<circle cx="418.455" cy="152.897" r="5.69024" transform="rotate(135 418.455 152.897)" fill="#EEEEEE"/>
<circle cx="321.889" cy="56.3307" r="5.69024" transform="rotate(135 321.889 56.3307)" fill="#EEEEEE"/>
<circle cx="466.739" cy="201.181" r="5.69024" transform="rotate(135 466.739 201.181)" fill="#EEEEEE"/>
<circle cx="370.172" cy="104.614" r="5.69024" transform="rotate(135 370.172 104.614)" fill="#EEEEEE"/>
<circle cx="273.605" cy="8.04738" r="5.69024" transform="rotate(135 273.605 8.04738)" fill="#EEEEEE"/>
<circle cx="394.314" cy="418.455" r="5.69024" transform="rotate(135 394.314 418.455)" fill="#EEEEEE"/>
<circle cx="297.747" cy="321.889" r="5.69024" transform="rotate(135 297.747 321.889)" fill="#EEEEEE"/>
<circle cx="201.18" cy="225.322" r="5.69024" transform="rotate(135 201.18 225.322)" fill="#EEEEEE"/>
<circle cx="346.03" cy="370.172" r="5.69024" transform="rotate(135 346.03 370.172)" fill="#EEEEEE"/>
<circle cx="249.464" cy="273.606" r="5.69024" transform="rotate(135 249.464 273.606)" fill="#EEEEEE"/>
<circle cx="152.898" cy="177.039" r="5.69024" transform="rotate(135 152.898 177.039)" fill="#EEEEEE"/>
<circle cx="370.172" cy="394.314" r="5.69024" transform="rotate(135 370.172 394.314)" fill="#EEEEEE"/>
<circle cx="273.605" cy="297.747" r="5.69024" transform="rotate(135 273.605 297.747)" fill="#EEEEEE"/>
<circle cx="177.039" cy="201.181" r="5.69024" transform="rotate(135 177.039 201.181)" fill="#EEEEEE"/>
<circle cx="321.889" cy="346.03" r="5.69024" transform="rotate(135 321.889 346.03)" fill="#EEEEEE"/>
<circle cx="225.322" cy="249.464" r="5.69024" transform="rotate(135 225.322 249.464)" fill="#EEEEEE"/>
<circle cx="128.756" cy="152.897" r="5.69024" transform="rotate(135 128.756 152.897)" fill="#EEEEEE"/>
<circle cx="466.739" cy="346.03" r="5.69024" transform="rotate(135 466.739 346.03)" fill="#EEEEEE"/>
<circle cx="370.172" cy="249.464" r="5.69024" transform="rotate(135 370.172 249.464)" fill="#EEEEEE"/>
<circle cx="273.605" cy="152.897" r="5.69024" transform="rotate(135 273.605 152.897)" fill="#EEEEEE"/>
<circle cx="418.455" cy="297.747" r="5.69024" transform="rotate(135 418.455 297.747)" fill="#EEEEEE"/>
<circle cx="321.889" cy="201.181" r="5.69024" transform="rotate(135 321.889 201.181)" fill="#EEEEEE"/>
<circle cx="225.323" cy="104.614" r="5.69024" transform="rotate(135 225.323 104.614)" fill="#EEEEEE"/>
<circle cx="442.597" cy="321.889" r="5.69024" transform="rotate(135 442.597 321.889)" fill="#EEEEEE"/>
<circle cx="346.03" cy="225.322" r="5.69024" transform="rotate(135 346.03 225.322)" fill="#EEEEEE"/>
<circle cx="249.464" cy="128.756" r="5.69024" transform="rotate(135 249.464 128.756)" fill="#EEEEEE"/>
<circle cx="394.314" cy="273.606" r="5.69024" transform="rotate(135 394.314 273.606)" fill="#EEEEEE"/>
<circle cx="297.747" cy="177.039" r="5.69024" transform="rotate(135 297.747 177.039)" fill="#EEEEEE"/>
<circle cx="201.18" cy="80.4723" r="5.69024" transform="rotate(135 201.18 80.4723)" fill="#EEEEEE"/>
<circle cx="321.889" cy="490.88" r="5.69024" transform="rotate(135 321.889 490.88)" fill="#EEEEEE"/>
<circle cx="225.322" cy="394.314" r="5.69024" transform="rotate(135 225.322 394.314)" fill="#EEEEEE"/>
<circle cx="128.756" cy="297.747" r="5.69024" transform="rotate(135 128.756 297.747)" fill="#EEEEEE"/>
<circle cx="273.605" cy="442.597" r="5.69024" transform="rotate(135 273.605 442.597)" fill="#EEEEEE"/>
<circle cx="177.039" cy="346.03" r="5.69024" transform="rotate(135 177.039 346.03)" fill="#EEEEEE"/>
<circle cx="80.4726" cy="249.464" r="5.69024" transform="rotate(135 80.4726 249.464)" fill="#EEEEEE"/>
<circle cx="297.747" cy="466.739" r="5.69024" transform="rotate(135 297.747 466.739)" fill="#EEEEEE"/>
<circle cx="201.18" cy="370.172" r="5.69024" transform="rotate(135 201.18 370.172)" fill="#EEEEEE"/>
<circle cx="104.614" cy="273.606" r="5.69024" transform="rotate(135 104.614 273.606)" fill="#EEEEEE"/>
<circle cx="249.464" cy="418.455" r="5.69024" transform="rotate(135 249.464 418.455)" fill="#EEEEEE"/>
<circle cx="152.897" cy="321.889" r="5.69024" transform="rotate(135 152.897 321.889)" fill="#EEEEEE"/>
<circle cx="56.3306" cy="225.322" r="5.69024" transform="rotate(135 56.3306 225.322)" fill="#EEEEEE"/>
<circle cx="515.022" cy="297.747" r="5.69024" transform="rotate(135 515.022 297.747)" fill="#EEEEEE"/>
<circle cx="418.455" cy="201.181" r="5.69024" transform="rotate(135 418.455 201.181)" fill="#EEEEEE"/>
<circle cx="321.889" cy="104.614" r="5.69024" transform="rotate(135 321.889 104.614)" fill="#EEEEEE"/>
<circle cx="466.739" cy="249.464" r="5.69024" transform="rotate(135 466.739 249.464)" fill="#EEEEEE"/>
<circle cx="370.172" cy="152.897" r="5.69024" transform="rotate(135 370.172 152.897)" fill="#EEEEEE"/>
<circle cx="273.605" cy="56.3307" r="5.69024" transform="rotate(135 273.605 56.3307)" fill="#EEEEEE"/>
<circle cx="490.88" cy="273.606" r="5.69024" transform="rotate(135 490.88 273.606)" fill="#EEEEEE"/>
<circle cx="394.314" cy="177.039" r="5.69024" transform="rotate(135 394.314 177.039)" fill="#EEEEEE"/>
<circle cx="297.747" cy="80.4723" r="5.69024" transform="rotate(135 297.747 80.4723)" fill="#EEEEEE"/>
<circle cx="442.597" cy="225.322" r="5.69024" transform="rotate(135 442.597 225.322)" fill="#EEEEEE"/>
<circle cx="346.03" cy="128.756" r="5.69024" transform="rotate(135 346.03 128.756)" fill="#EEEEEE"/>
<circle cx="249.464" cy="32.189" r="5.69024" transform="rotate(135 249.464 32.189)" fill="#EEEEEE"/>
<circle cx="370.172" cy="442.597" r="5.69024" transform="rotate(135 370.172 442.597)" fill="#EEEEEE"/>
<circle cx="273.605" cy="346.03" r="5.69024" transform="rotate(135 273.605 346.03)" fill="#EEEEEE"/>
<circle cx="177.039" cy="249.464" r="5.69024" transform="rotate(135 177.039 249.464)" fill="#EEEEEE"/>
<circle cx="321.889" cy="394.314" r="5.69024" transform="rotate(135 321.889 394.314)" fill="#EEEEEE"/>
<circle cx="225.322" cy="297.747" r="5.69024" transform="rotate(135 225.322 297.747)" fill="#EEEEEE"/>
<circle cx="128.755" cy="201.181" r="5.69024" transform="rotate(135 128.755 201.181)" fill="#EEEEEE"/>
<circle cx="346.03" cy="418.455" r="5.69024" transform="rotate(135 346.03 418.455)" fill="#EEEEEE"/>
<circle cx="249.464" cy="321.889" r="5.69024" transform="rotate(135 249.464 321.889)" fill="#EEEEEE"/>
<circle cx="152.897" cy="225.322" r="5.69024" transform="rotate(135 152.897 225.322)" fill="#EEEEEE"/>
<circle cx="297.747" cy="370.172" r="5.69024" transform="rotate(135 297.747 370.172)" fill="#EEEEEE"/>
<circle cx="201.18" cy="273.606" r="5.69024" transform="rotate(135 201.18 273.606)" fill="#EEEEEE"/>
<circle cx="104.614" cy="177.039" r="5.69024" transform="rotate(135 104.614 177.039)" fill="#EEEEEE"/>
<circle cx="442.597" cy="370.172" r="5.69024" transform="rotate(135 442.597 370.172)" fill="#EEEEEE"/>
<circle cx="346.03" cy="273.606" r="5.69024" transform="rotate(135 346.03 273.606)" fill="#EEEEEE"/>
<circle cx="249.464" cy="177.039" r="5.69024" transform="rotate(135 249.464 177.039)" fill="#EEEEEE"/>
<circle cx="394.314" cy="321.889" r="5.69024" transform="rotate(135 394.314 321.889)" fill="#EEEEEE"/>
<circle cx="297.747" cy="225.322" r="5.69024" transform="rotate(135 297.747 225.322)" fill="#EEEEEE"/>
<circle cx="201.18" cy="128.756" r="5.69024" transform="rotate(135 201.18 128.756)" fill="#EEEEEE"/>
<circle cx="418.455" cy="346.03" r="5.69024" transform="rotate(135 418.455 346.03)" fill="#EEEEEE"/>
<circle cx="321.889" cy="249.464" r="5.69024" transform="rotate(135 321.889 249.464)" fill="#EEEEEE"/>
<circle cx="225.322" cy="152.897" r="5.69024" transform="rotate(135 225.322 152.897)" fill="#EEEEEE"/>
<circle cx="370.172" cy="297.747" r="5.69024" transform="rotate(135 370.172 297.747)" fill="#EEEEEE"/>
<circle cx="273.605" cy="201.181" r="5.69024" transform="rotate(135 273.605 201.181)" fill="#EEEEEE"/>
<circle cx="177.039" cy="104.614" r="5.69024" transform="rotate(135 177.039 104.614)" fill="#EEEEEE"/>
<circle cx="297.747" cy="515.022" r="5.69024" transform="rotate(135 297.747 515.022)" fill="#EEEEEE"/>
<circle cx="201.181" cy="418.455" r="5.69024" transform="rotate(135 201.181 418.455)" fill="#EEEEEE"/>
<circle cx="104.614" cy="321.889" r="5.69024" transform="rotate(135 104.614 321.889)" fill="#EEEEEE"/>
<circle cx="249.464" cy="466.739" r="5.69024" transform="rotate(135 249.464 466.739)" fill="#EEEEEE"/>
<circle cx="152.897" cy="370.172" r="5.69024" transform="rotate(135 152.897 370.172)" fill="#EEEEEE"/>
<circle cx="56.3306" cy="273.606" r="5.69024" transform="rotate(135 56.3306 273.606)" fill="#EEEEEE"/>
<circle cx="273.605" cy="490.88" r="5.69024" transform="rotate(135 273.605 490.88)" fill="#EEEEEE"/>
<circle cx="177.039" cy="394.314" r="5.69024" transform="rotate(135 177.039 394.314)" fill="#EEEEEE"/>
<circle cx="80.4726" cy="297.747" r="5.69024" transform="rotate(135 80.4726 297.747)" fill="#EEEEEE"/>
<circle cx="225.322" cy="442.597" r="5.69024" transform="rotate(135 225.322 442.597)" fill="#EEEEEE"/>
<circle cx="128.756" cy="346.03" r="5.69024" transform="rotate(135 128.756 346.03)" fill="#EEEEEE"/>
<circle cx="32.1892" cy="249.464" r="5.69024" transform="rotate(135 32.1892 249.464)" fill="#EEEEEE"/>
<circle cx="490.88" cy="321.889" r="5.69024" transform="rotate(135 490.88 321.889)" fill="#F58220"/>
<circle cx="394.314" cy="225.322" r="5.69024" transform="rotate(135 394.314 225.322)" fill="#EEEEEE"/>
<circle cx="297.747" cy="128.756" r="5.69024" transform="rotate(135 297.747 128.756)" fill="#EEEEEE"/>
<circle cx="442.597" cy="273.606" r="5.69024" transform="rotate(135 442.597 273.606)" fill="#EEEEEE"/>
<circle cx="346.03" cy="177.039" r="5.69024" transform="rotate(135 346.03 177.039)" fill="#EEEEEE"/>
<circle cx="249.464" cy="80.4723" r="5.69024" transform="rotate(135 249.464 80.4723)" fill="#EEEEEE"/>
<circle cx="466.739" cy="297.747" r="5.69024" transform="rotate(135 466.739 297.747)" fill="#EEEEEE"/>
<circle cx="370.172" cy="201.181" r="5.69024" transform="rotate(135 370.172 201.181)" fill="#EEEEEE"/>
<circle cx="273.605" cy="104.614" r="5.69024" transform="rotate(135 273.605 104.614)" fill="#EEEEEE"/>
<circle cx="418.455" cy="249.464" r="5.69024" transform="rotate(135 418.455 249.464)" fill="#EEEEEE"/>
<circle cx="321.889" cy="152.897" r="5.69024" transform="rotate(135 321.889 152.897)" fill="#EEEEEE"/>
<circle cx="225.322" cy="56.3307" r="5.69024" transform="rotate(135 225.322 56.3307)" fill="#EEEEEE"/>
<circle cx="346.03" cy="466.739" r="5.69024" transform="rotate(135 346.03 466.739)" fill="#EEEEEE"/>
<circle cx="249.464" cy="370.172" r="5.69024" transform="rotate(135 249.464 370.172)" fill="#EEEEEE"/>
<circle cx="152.898" cy="273.606" r="5.69024" transform="rotate(135 152.898 273.606)" fill="#EEEEEE"/>
<circle cx="297.747" cy="418.455" r="5.69024" transform="rotate(135 297.747 418.455)" fill="#EEEEEE"/>
<circle cx="201.18" cy="321.889" r="5.69024" transform="rotate(135 201.18 321.889)" fill="#EEEEEE"/>
<circle cx="104.614" cy="225.322" r="5.69024" transform="rotate(135 104.614 225.322)" fill="#EEEEEE"/>
<circle cx="321.889" cy="442.597" r="5.69024" transform="rotate(135 321.889 442.597)" fill="#EEEEEE"/>
<circle cx="225.323" cy="346.03" r="5.69024" transform="rotate(135 225.323 346.03)" fill="#EEEEEE"/>
<circle cx="128.756" cy="249.464" r="5.69024" transform="rotate(135 128.756 249.464)" fill="#EEEEEE"/>
<circle cx="273.605" cy="394.314" r="5.69024" transform="rotate(135 273.605 394.314)" fill="#EEEEEE"/>
<circle cx="177.039" cy="297.747" r="5.69024" transform="rotate(135 177.039 297.747)" fill="#EEEEEE"/>
<circle cx="80.4726" cy="201.181" r="5.69024" transform="rotate(135 80.4726 201.181)" fill="#EEEEEE"/>
<circle cx="418.455" cy="394.314" r="5.69024" transform="rotate(135 418.455 394.314)" fill="#EEEEEE"/>
<circle cx="321.889" cy="297.747" r="5.69024" transform="rotate(135 321.889 297.747)" fill="#EEEEEE"/>
<circle cx="225.322" cy="201.181" r="5.69024" transform="rotate(135 225.322 201.181)" fill="#EEEEEE"/>
<circle cx="370.172" cy="346.03" r="5.69024" transform="rotate(135 370.172 346.03)" fill="#EEEEEE"/>
<circle cx="273.605" cy="249.464" r="5.69024" transform="rotate(135 273.605 249.464)" fill="#EEEEEE"/>
<circle cx="177.039" cy="152.897" r="5.69024" transform="rotate(135 177.039 152.897)" fill="#EEEEEE"/>
<circle cx="394.314" cy="370.172" r="5.69024" transform="rotate(135 394.314 370.172)" fill="#EEEEEE"/>
<circle cx="297.747" cy="273.606" r="5.69024" transform="rotate(135 297.747 273.606)" fill="#EEEEEE"/>
<circle cx="201.181" cy="177.039" r="5.69024" transform="rotate(135 201.181 177.039)" fill="#EEEEEE"/>
<circle cx="346.03" cy="321.889" r="5.69024" transform="rotate(135 346.03 321.889)" fill="#EEEEEE"/>
<circle cx="249.464" cy="225.322" r="5.69024" transform="rotate(135 249.464 225.322)" fill="#EEEEEE"/>
<circle cx="152.898" cy="128.756" r="5.69024" transform="rotate(135 152.898 128.756)" fill="#EEEEEE"/>
<circle cx="273.605" cy="539.164" r="5.69024" transform="rotate(135 273.605 539.164)" fill="#EEEEEE"/>
<circle cx="177.039" cy="442.597" r="5.69024" transform="rotate(135 177.039 442.597)" fill="#EEEEEE"/>
<circle cx="80.4726" cy="346.03" r="5.69024" transform="rotate(135 80.4726 346.03)" fill="#EEEEEE"/>
<circle cx="225.322" cy="490.88" r="5.69024" transform="rotate(135 225.322 490.88)" fill="#EEEEEE"/>
<circle cx="128.756" cy="394.314" r="5.69024" transform="rotate(135 128.756 394.314)" fill="#EEEEEE"/>
<circle cx="32.1892" cy="297.747" r="5.69024" transform="rotate(135 32.1892 297.747)" fill="#EEEEEE"/>
<circle cx="249.464" cy="515.022" r="5.69024" transform="rotate(135 249.464 515.022)" fill="#EEEEEE"/>
<circle cx="152.897" cy="418.455" r="5.69024" transform="rotate(135 152.897 418.455)" fill="#EEEEEE"/>
<circle cx="56.3306" cy="321.889" r="5.69024" transform="rotate(135 56.3306 321.889)" fill="#EEEEEE"/>
<circle cx="201.18" cy="466.739" r="5.69024" transform="rotate(135 201.18 466.739)" fill="#EEEEEE"/>
<circle cx="104.614" cy="370.172" r="5.69024" transform="rotate(135 104.614 370.172)" fill="#EEEEEE"/>
<circle cx="8.04769" cy="273.606" r="5.69024" transform="rotate(135 8.04769 273.606)" fill="#EEEEEE"/>
</g>
</svg>
